<?xml version="1.0" encoding="iso-8859-1"?>
<!-- Generator: Adobe Illustrator 19.0.0, SVG Export Plug-In . SVG Version: 6.00 Build 0)  -->
<svg version="1.1" id="Layer_1" xmlns="http://www.w3.org/2000/svg" xmlns:xlink="http://www.w3.org/1999/xlink" x="0px" y="0px"
	 viewBox="0 0 512.002 512.002" style="enable-background:new 0 0 512.002 512.002;" xml:space="preserve">
<g>
	<g>
		<path d="M208.021,336.915l27.458-27.458c-12.332-9.525-23.409-20.601-32.935-32.934l-27.458,27.458l-14.271-14.273
			c-7.277-7.277-19.072-7.277-26.349,0L18.161,406.012c-24.214,24.214-24.214,63.615,0,87.828
			c12.109,12.109,28.009,18.161,43.914,18.161c15.902,0,31.808-6.055,43.915-18.161l116.304-116.304
			c7.276-7.276,7.276-19.072,0-26.349L208.021,336.915z"/>
	</g>
</g>
<g>
	<g>
		<path d="M463.49,48.512c-64.683-64.681-169.928-64.681-234.609,0c-31.333,31.333-48.589,72.992-48.589,117.305
			c0,44.311,17.256,85.971,48.589,117.304c31.333,31.333,72.992,48.589,117.304,48.589s85.971-17.256,117.305-48.589
			C528.172,218.439,528.172,113.195,463.49,48.512z M415.368,234.998c-18.479,18.479-43.049,28.656-69.182,28.656
			c-26.133,0-50.703-10.177-69.182-28.656c-18.479-18.479-28.656-43.049-28.656-69.182c0-26.133,10.177-50.703,28.656-69.182
			s43.049-28.656,69.182-28.656c26.133,0,50.703,10.177,69.182,28.656s28.656,43.047,28.656,69.182S433.847,216.52,415.368,234.998z
			"/>
	</g>
</g>
<g>
</g>
<g>
</g>
<g>
</g>
<g>
</g>
<g>
</g>
<g>
</g>
<g>
</g>
<g>
</g>
<g>
</g>
<g>
</g>
<g>
</g>
<g>
</g>
<g>
</g>
<g>
</g>
<g>
</g>
</svg>
